# xmcd
#
# Track frame offsets: 
#        150
#        15534
#        34526
#        60284
#        81108
#        103076
#        122271
#
# Disc length: 1928 seconds
#
# Revision: 0
# Processed by: cddbd v1.5.2PL0 Copyright (c) Steve Scherf et al.
# Submitted via: ExactAudioCopy v1.0b4
#
DISCID=43078607
DTITLE=Brother Jeff and Big Rich - The Session
DYEAR=2020
DGENRE=Blues
TTITLE0=Food, Money, Or Love
TTITLE1=Hustle And Bustle
TTITLE2=How I Live
TTITLE3=Slow Your Roll
TTITLE4=The Mirror
TTITLE5=Watchin' The World Go By
TTITLE6=Thinkin' About Drinkin'
EXTD=
EXTT0=
EXTT1=
EXTT2=
EXTT3=
EXTT4=
EXTT5=
EXTT6=
PLAYORDER=
